<svg xmlns="http://www.w3.org/2000/svg" viewBox="0 0 100 100" class="w-full h-full drop-shadow-md"><path d="M20 40 L40 10 L50 50 Z" fill="#E89151"></path><path d="M80 40 L60 10 L50 50 Z" fill="#E89151"></path><path d="M25 35 L38 15 L42 40 Z" fill="#2EB5C2"></path><path d="M75 35 L62 15 L58 40 Z" fill="#2EB5C2"></path><path d="M50 95 L15 50 L50 40 L85 50 Z" fill="#E89151"></path><path d="M50 95 L30 65 L50 55 L70 65 Z" fill="#F9F9F7"></path><path d="M15 50 L30 65 L50 95 L15 50 Z" fill="#D14D33" opacity="0.8"></path><path d="M85 50 L70 65 L50 95 L85 50 Z" fill="#D14D33" opacity="0.8"></path><path d="M32 55 L45 55 L40 62 Z" fill="#0B5D68"></path><path d="M68 55 L55 55 L60 62 Z" fill="#0B5D68"></path><path d="M50 95 L40 80 L60 80 Z" fill="#2EB5C2"></path><path d="M50 80 L45 75 L55 75 Z" fill="#0B5D68"></path></svg>